# xmcd CD database file
#
# Track frame offsets:
#	150
#	84824
#	152143
#	186532
#	211139
#
# Disc length: 3912 seconds
#
# Revision: 0
# Processed by: cddbd v1.5.2PL0 Copyright (c) Steve Scherf et al.
# Submitted via: CDex 1.70beta2
#
DISCID=380f4605
DTITLE=Wah! - Hidden in the name
DYEAR=2001
DGENRE=New Age
TTITLE0=Om Jaya Ganapataye
TTITLE1=Hare Ram
TTITLE2=Radhe Ohaj
TTITLE3=Dub Version
TTITLE4=Om Namo Ohayavate
EXTD=YEAR: 2001
EXTT0=
EXTT1=
EXTT2=
EXTT3=
EXTT4=
PLAYORDER=
